<svg xmlns="http://www.w3.org/2000/svg" viewBox="0 0 265.15 291.43"><defs><style>.cls-1,.cls-3,.cls-5{fill:none;}.cls-1,.cls-2,.cls-4,.cls-5{stroke:#000;}.cls-1,.cls-2,.cls-3,.cls-4,.cls-5{stroke-miterlimit:10;}.cls-1,.cls-4{stroke-width:4px;}.cls-2,.cls-4{fill:#fff;}.cls-2{stroke-width:5px;}.cls-3{stroke:#231f20;}.cls-3,.cls-5{stroke-width:2px;}.cls-6{fill:#231f20;}</style></defs><g id="Layer_1" data-name="Layer 1"><path class="cls-1" d="M265.27,133.19l27.3,178.74a11.65,11.65,0,0,1-11.52,13.41H88a11.65,11.65,0,0,1-11.52-9.89L49.2,136.71a11.65,11.65,0,0,1,11.52-13.42h193" transform="translate(-47.06 -35.91)"/><path class="cls-2" d="M298.06,305.55H105a11.67,11.67,0,0,1-11.53-9.9L66.2,116.91a11.67,11.67,0,0,1,11.53-13.42h193a11.67,11.67,0,0,1,11.53,9.9l27.3,178.74A11.67,11.67,0,0,1,298.06,305.55Z" transform="translate(-47.06 -35.91)"/></g><g id="Layer_3" data-name="Layer 3"><path class="cls-3" d="M70.5,137c10.79-4.59,20.65-12,32-9.56,9.07,1.91,13.9,8.27,23.25,8.25,10,0,17-11.11,27-10.32,9.62.75,15.83,10.38,25.8,10.54,8.47.13,12.75-5.68,20.61-8,12.41-3.72,15.95,3.21,26.63,6.94,9.77,3.42,14.33-.82,22.8-4.76,15.66-7.3,23.1-.08,38.07,6.9" transform="translate(-47.06 -35.91)"/><path class="cls-3" d="M73.27,171.45c10.79-4.59,20.65-12,32-9.56,9.07,1.91,13.9,8.27,23.25,8.25,10,0,17.05-11.11,27-10.32,9.62.75,15.83,10.37,25.8,10.53,8.47.14,12.75-5.67,20.61-8,12.41-3.72,16,3.21,26.63,6.94,9.77,3.42,14.33-.82,22.8-4.76,15.66-7.31,23.1-.09,38.07,6.9" transform="translate(-47.06 -35.91)"/><path class="cls-3" d="M78.61,203.09c10.79-4.59,20.65-12,32-9.56,9.07,1.91,13.9,8.27,23.25,8.25,10.05,0,17.05-11.11,27-10.32,9.62.75,15.83,10.37,25.8,10.53,8.47.14,12.75-5.67,20.61-8,12.41-3.72,16,3.21,26.63,6.94,9.77,3.42,14.33-.82,22.8-4.77,15.66-7.3,23.1-.08,38.07,6.91" transform="translate(-47.06 -35.91)"/><path class="cls-3" d="M84.51,237.18c10.78-4.59,20.64-12,32-9.56,9.07,1.91,13.9,8.27,23.25,8.25,10,0,17.05-11.11,27-10.32,9.61.75,15.83,10.37,25.8,10.53,8.47.14,12.74-5.67,20.6-8,12.41-3.72,16,3.21,26.64,6.94,9.77,3.42,14.33-.82,22.79-4.76,15.67-7.3,23.1-.09,38.07,6.9" transform="translate(-47.06 -35.91)"/><path class="cls-3" d="M88.54,274.06c10.9-5.09,20.28-12,32-9.27,9.22,2.18,13.68,8.3,23.25,7.93,9.84-.38,16.92-11.32,27-10.14,9.64,1.12,15.52,10.59,25.8,10.42,8.29-.13,12.83-6.25,20.61-8.37,12.32-3.35,16,4.47,26.63,7.74,9.76,3,14.53-2.09,22.79-5.78,15.11-6.76,23.69,1.38,38.08,7.51" transform="translate(-47.06 -35.91)"/><path class="cls-3" d="M70.5,137c10.79-4.59,20.65-12,32-9.56,9.07,1.91,13.9,8.27,23.25,8.25,10,0,17-11.11,27-10.32,9.62.75,15.83,10.38,25.8,10.54,8.47.13,12.75-5.68,20.61-8,12.41-3.72,15.95,3.21,26.63,6.94,9.77,3.42,14.33-.82,22.8-4.76,15.66-7.3,23.1-.08,38.07,6.9" transform="translate(-47.06 -35.91)"/><path class="cls-3" d="M73.27,171.45c10.79-4.59,20.65-12,32-9.56,9.07,1.91,13.9,8.27,23.25,8.25,10,0,17.05-11.11,27-10.32,9.62.75,15.83,10.37,25.8,10.53,8.47.14,12.75-5.67,20.61-8,12.41-3.72,16,3.21,26.63,6.94,9.77,3.42,14.33-.82,22.8-4.76,15.66-7.31,23.1-.09,38.07,6.9" transform="translate(-47.06 -35.91)"/><path class="cls-3" d="M78.61,203.09c10.79-4.59,20.65-12,32-9.56,9.07,1.91,13.9,8.27,23.25,8.25,10.05,0,17.05-11.11,27-10.32,9.62.75,15.83,10.37,25.8,10.53,8.47.14,12.75-5.67,20.61-8,12.41-3.72,16,3.21,26.63,6.94,9.77,3.42,14.33-.82,22.8-4.77,15.66-7.3,23.1-.08,38.07,6.91" transform="translate(-47.06 -35.91)"/><path class="cls-3" d="M84.51,237.18c10.78-4.59,20.64-12,32-9.56,9.07,1.91,13.9,8.27,23.25,8.25,10,0,17.05-11.11,27-10.32,9.61.75,15.83,10.37,25.8,10.53,8.47.14,12.74-5.67,20.6-8,12.41-3.72,16,3.21,26.64,6.94,9.77,3.42,14.33-.82,22.79-4.76,15.67-7.3,23.1-.09,38.07,6.9" transform="translate(-47.06 -35.91)"/><path class="cls-3" d="M88.54,274.06c10.9-5.09,20.28-12,32-9.27,9.22,2.18,13.68,8.3,23.25,7.93,9.84-.38,16.92-11.32,27-10.14,9.64,1.12,15.52,10.59,25.8,10.42,8.29-.13,12.83-6.25,20.61-8.37,12.32-3.35,16,4.47,26.63,7.74,9.76,3,14.53-2.09,22.79-5.78,15.11-6.76,23.69,1.38,38.08,7.51" transform="translate(-47.06 -35.91)"/></g><g id="Layer_2" data-name="Layer 2"><path class="cls-2" d="M219.42,196.33c.11-.33.21-.66.32-1l-.28-.38c-14-18.6-40.48-21.2-58.5-6.45-11.52,9.43-25.65,12.62-45.17,9.09l9.4,14.11C151.31,246.44,205.79,237.6,219.42,196.33Z" transform="translate(-47.06 -35.91)"/><path class="cls-2" d="M184,205.37a78.73,78.73,0,0,0,18.95-3.91c42.55-14.37,65-61.58,50.21-105.45C240,57.15,202,34,164,39.14h0c-1.06.14-2.12.3-3.17.49-1.63.3-3.27.65-4.91,1a1.92,1.92,0,0,0-.32.09A24,24,0,0,0,154.64,86a0,0,0,0,1,.05,0c2,.39,3.93.86,5.84,1.41a69.43,69.43,0,0,1,47.38,44.49C216.43,157.09,206.21,185,184,205.37Z" transform="translate(-47.06 -35.91)"/><path class="cls-2" d="M135.56,64.18c.32,7.45,4.65,13.93,11.19,18.07l.05,0A30.31,30.31,0,0,0,153,85.21a33.07,33.07,0,0,0,12.22,1.73c15.78-.68,28.13-12,27.56-25.22-.49-11.41-10.43-20.56-23.27-22.43a33.47,33.47,0,0,0-6-.33h-.4C147.34,39.65,135,50.94,135.56,64.18Z" transform="translate(-47.06 -35.91)"/><ellipse class="cls-4" cx="117.95" cy="14.71" rx="2.05" ry="0.62"/><path class="cls-5" d="M154.53,64.41c-18.53-5.18-18,5.23-18,5.23" transform="translate(-47.06 -35.91)"/><path class="cls-5" d="M156,191.29c-16,20.38,7.3,24.85-6.31,37" transform="translate(-47.06 -35.91)"/><path class="cls-6" d="M146.35,224.77l3.63-.42a4.27,4.27,0,0,0,2.24-.62c1.34-1,1.78-3.13,1.84-4.69a2.54,2.54,0,0,0-1.84-2.41l-4-1.15,1.49,3.67a11.74,11.74,0,0,0,1.65-5.18l-4.66,1.26a10.12,10.12,0,0,1,.67,7.78l4.57-.6a43,43,0,0,1-2.79-5.86,18.05,18.05,0,0,1-.82-3,12.49,12.49,0,0,1-.15-1.5c0-.29,0-.59,0-.88,0-.56,0-.59,0-.09l-.89.9-.58.15-1.26-.34c.41.18.21.11.2.08a2.5,2.5,0,0,0,4.82-1.33,40.56,40.56,0,0,1,0-12,2.58,2.58,0,0,0-1.74-3.07,2.53,2.53,0,0,0-3.08,1.74c-.32,1.49-2.07,1.63-3.36,1.61-2.25,0-4.52-.36-6.77-.52q-7.16-.51-14.33-.62a2.51,2.51,0,0,0-2.5,2.5c.29,2.23,1.52,3.49,3.35,4.65a10.17,10.17,0,0,1,3.37,3.44c1,1.56,1.76,3.21,2.76,4.75a37.84,37.84,0,0,0,3,3.93,50.34,50.34,0,0,0,8.11,7.53,25.69,25.69,0,0,0,9,4.66,2.53,2.53,0,0,0,3.16-2.42A42,42,0,0,0,149.42,215c-1-3.81-2.31-7.54-3.48-11.3a6.58,6.58,0,0,0-1.51-3,5.9,5.9,0,0,0-3.72-1.29,30.4,30.4,0,0,0-7.74.2c-2.26.32-5.25.73-6.55,2.88-1.69,2.78.79,4.83,2.63,6.6l13.32,12.82a2.52,2.52,0,0,0,4.18-2.43l-1.39-6.74c-.43-2.07-.57-4.78-1.76-6.57s-3.2-2.29-5.19-2.32a19,19,0,0,1-2.13,0c.16,0-.8-.1-.53-.1-.48,0-.16-.26-.07.06l-1.75,3.07c-.41.13-.67-.42-.31.08a8,8,0,0,0,.57.6c.5.55,1,1.11,1.48,1.67,1,1.11,1.94,2.28,3,3.35a5.11,5.11,0,0,0,3.14,1.37l6.49,1.35a2.54,2.54,0,0,0,3.17-2.41l.34-15a2.52,2.52,0,0,0-3.17-2.41l-18,7.06a2.59,2.59,0,0,0-1.75,3.08,2.53,2.53,0,0,0,3.08,1.75l18-7.07-3.16-2.41-.34,15,3.16-2.41-8.2-1.71,1.11.65-4.46-5c-1.41-1.6-3.17-3-5.44-2.33a2.55,2.55,0,0,0-1.75,3.08,5,5,0,0,0,3.81,3.47,10.1,10.1,0,0,0,2.51.26c.47,0,.94-.06,1.4,0a7.34,7.34,0,0,0,.87.13c.31,0,0-.18,0,0,.14.5.24,1,.34,1.5l.7,3.38,1.43,7,4.18-2.43L138,210.76,134,207l-1.8-1.74-1.08-1-.36-.34c-.34-.33-.35-.35,0-.07v1.33c-.05.36-.61.23,0,.12.26-.06.54-.17.8-.23a22.8,22.8,0,0,1,2.59-.51,26.87,26.87,0,0,1,5.67-.14,10.5,10.5,0,0,0,1.1.11c.4.14.46.11.18-.1s-.22-.23-.15,0c-.1.4.42,1.36.55,1.76.42,1.34.85,2.67,1.27,4,1.69,5.32,3.74,11,3.63,16.68l3.17-2.41c-5.71-1.41-10.88-6.25-14.68-10.64a48.9,48.9,0,0,1-4.88-7.44,16.72,16.72,0,0,0-3.24-4.14,17.2,17.2,0,0,0-2.22-1.58c-.16-.1-.42-.24-.56-.35-.46-.35-.4-.71-.31,0l-2.5,2.5c5.59.09,11.18.35,16.76.81,2.53.2,5.25.71,7.73-.09a6.84,6.84,0,0,0,4.79-4.86l-4.82-1.33a48.36,48.36,0,0,0,0,14.66l4.82-1.33c-.75-1.88-2.35-3.89-4.66-3.34-2.55.6-2.75,3.36-2.58,5.5.35,4.41,2.34,8.36,4.4,12.19,1,2,4,1.39,4.57-.6A15.27,15.27,0,0,0,151,212.71a2.55,2.55,0,0,0-2.83-1.15,2.61,2.61,0,0,0-1.83,2.41,6.1,6.1,0,0,1-1,2.65,2.53,2.53,0,0,0,1.49,3.68l4,1.15L149.06,219a2.74,2.74,0,0,1-.51,1.46l2.15-1.23-4.35.5a2.58,2.58,0,0,0-2.5,2.5,2.51,2.51,0,0,0,2.5,2.5Z" transform="translate(-47.06 -35.91)"/></g></svg>