<svg xmlns="http://www.w3.org/2000/svg" viewBox="0 0 265.15 292.27"><defs><style>.cls-1,.cls-3{fill:none;}.cls-1,.cls-2,.cls-3,.cls-4{stroke:#231f20;stroke-miterlimit:10;}.cls-1,.cls-4{stroke-width:4px;}.cls-2,.cls-4{fill:#fff;}.cls-2{stroke-width:5px;}.cls-3{stroke-width:2px;}.cls-5{fill:#231f20;}</style></defs><g id="Layer_1" data-name="Layer 1"><path class="cls-1" d="M265.27,133.19l27.3,178.74a11.65,11.65,0,0,1-11.52,13.41H88a11.65,11.65,0,0,1-11.52-9.89L49.2,136.71a11.65,11.65,0,0,1,11.52-13.42h193" transform="translate(-47.06 -35.07)"/><path class="cls-2" d="M298.06,305.55H105a11.67,11.67,0,0,1-11.53-9.9L66.2,116.91a11.67,11.67,0,0,1,11.53-13.42h193a11.67,11.67,0,0,1,11.53,9.9l27.3,178.74A11.67,11.67,0,0,1,298.06,305.55Z" transform="translate(-47.06 -35.07)"/></g><g id="Layer_3" data-name="Layer 3"><path class="cls-3" d="M70.5,137c10.79-4.59,20.65-12,32-9.56,9.07,1.91,13.9,8.27,23.25,8.25,10,0,17-11.11,27-10.32,9.62.75,15.83,10.38,25.8,10.54,8.47.13,12.75-5.68,20.61-8,12.41-3.72,15.95,3.21,26.63,6.94,9.77,3.42,14.33-.82,22.8-4.76,15.66-7.3,23.1-.08,38.07,6.9" transform="translate(-47.06 -35.07)"/><path class="cls-3" d="M73.27,171.45c10.79-4.59,20.65-12,32-9.56,9.07,1.91,13.9,8.27,23.25,8.25,10,0,17.05-11.11,27-10.32,9.62.75,15.83,10.37,25.8,10.53,8.47.14,12.75-5.67,20.61-8,12.41-3.72,16,3.21,26.63,6.94,9.77,3.42,14.33-.82,22.8-4.76,15.66-7.31,23.1-.09,38.07,6.9" transform="translate(-47.06 -35.07)"/><path class="cls-3" d="M78.61,203.09c10.79-4.59,20.65-12,32-9.56,9.07,1.91,13.9,8.27,23.25,8.25,10.05,0,17.05-11.11,27-10.32,9.62.75,15.83,10.37,25.8,10.53,8.47.14,12.75-5.67,20.61-8,12.41-3.72,16,3.21,26.63,6.94,9.77,3.42,14.33-.82,22.8-4.77,15.66-7.3,23.1-.08,38.07,6.91" transform="translate(-47.06 -35.07)"/><path class="cls-3" d="M84.51,237.18c10.78-4.59,20.64-12,32-9.56,9.07,1.91,13.9,8.27,23.25,8.25,10,0,17.05-11.11,27-10.32,9.61.75,15.83,10.37,25.8,10.53,8.47.14,12.74-5.67,20.6-8,12.41-3.72,16,3.21,26.64,6.94,9.77,3.42,14.33-.82,22.79-4.76,15.67-7.3,23.1-.09,38.07,6.9" transform="translate(-47.06 -35.07)"/><path class="cls-3" d="M88.54,274.06c10.9-5.09,20.28-12,32-9.27,9.22,2.18,13.68,8.3,23.25,7.93,9.84-.38,16.92-11.32,27-10.14,9.64,1.12,15.52,10.59,25.8,10.42,8.29-.13,12.83-6.25,20.61-8.37,12.32-3.35,16,4.47,26.63,7.74,9.76,3,14.53-2.09,22.79-5.78,15.11-6.76,23.69,1.38,38.08,7.51" transform="translate(-47.06 -35.07)"/><path class="cls-3" d="M70.5,137c10.79-4.59,20.65-12,32-9.56,9.07,1.91,13.9,8.27,23.25,8.25,10,0,17-11.11,27-10.32,9.62.75,15.83,10.38,25.8,10.54,8.47.13,12.75-5.68,20.61-8,12.41-3.72,15.95,3.21,26.63,6.94,9.77,3.42,14.33-.82,22.8-4.76,15.66-7.3,23.1-.08,38.07,6.9" transform="translate(-47.06 -35.07)"/><path class="cls-3" d="M73.27,171.45c10.79-4.59,20.65-12,32-9.56,9.07,1.91,13.9,8.27,23.25,8.25,10,0,17.05-11.11,27-10.32,9.62.75,15.83,10.37,25.8,10.53,8.47.14,12.75-5.67,20.61-8,12.41-3.72,16,3.21,26.63,6.94,9.77,3.42,14.33-.82,22.8-4.76,15.66-7.31,23.1-.09,38.07,6.9" transform="translate(-47.06 -35.07)"/><path class="cls-3" d="M78.61,203.09c10.79-4.59,20.65-12,32-9.56,9.07,1.91,13.9,8.27,23.25,8.25,10.05,0,17.05-11.11,27-10.32,9.62.75,15.83,10.37,25.8,10.53,8.47.14,12.75-5.67,20.61-8,12.41-3.72,16,3.21,26.63,6.94,9.77,3.42,14.33-.82,22.8-4.77,15.66-7.3,23.1-.08,38.07,6.91" transform="translate(-47.06 -35.07)"/><path class="cls-3" d="M84.51,237.18c10.78-4.59,20.64-12,32-9.56,9.07,1.91,13.9,8.27,23.25,8.25,10,0,17.05-11.11,27-10.32,9.61.75,15.83,10.37,25.8,10.53,8.47.14,12.74-5.67,20.6-8,12.41-3.72,16,3.21,26.64,6.94,9.77,3.42,14.33-.82,22.79-4.76,15.67-7.3,23.1-.09,38.07,6.9" transform="translate(-47.06 -35.07)"/><path class="cls-3" d="M88.54,274.06c10.9-5.09,20.28-12,32-9.27,9.22,2.18,13.68,8.3,23.25,7.93,9.84-.38,16.92-11.32,27-10.14,9.64,1.12,15.52,10.59,25.8,10.42,8.29-.13,12.83-6.25,20.61-8.37,12.32-3.35,16,4.47,26.63,7.74,9.76,3,14.53-2.09,22.79-5.78,15.11-6.76,23.69,1.38,38.08,7.51" transform="translate(-47.06 -35.07)"/></g><g id="Layer_2" data-name="Layer 2"><path class="cls-2" d="M156.36,195.49c-.11-.33-.21-.66-.32-1l.28-.37c14-18.61,40.48-21.2,58.5-6.46,11.52,9.43,25.65,12.63,45.17,9.1l-9.4,14.11C224.47,245.6,170,236.76,156.36,195.49Z" transform="translate(-47.06 -35.07)"/><path class="cls-2" d="M191.81,204.52a78.26,78.26,0,0,1-18.95-3.91c-42.55-14.36-65-61.57-50.21-105.45,13.12-38.86,51.09-62.06,89.17-56.87h.05c1,.15,2.11.31,3.16.5,1.64.29,3.27.64,4.91,1l.32.09a24,24,0,0,1,.88,45.19h0c-2,.39-3.93.87-5.84,1.41A69.45,69.45,0,0,0,167.87,131C159.35,156.24,169.57,184.18,191.81,204.52Z" transform="translate(-47.06 -35.07)"/><path class="cls-2" d="M240.22,63.34c-.32,7.45-4.65,13.93-11.19,18.06l-.05,0a29.79,29.79,0,0,1-6.18,2.94,33.28,33.28,0,0,1-12.22,1.74c-15.78-.68-28.13-12-27.56-25.22.49-11.42,10.43-20.57,23.27-22.44a32.56,32.56,0,0,1,6-.32h.4C228.44,38.8,240.79,50.1,240.22,63.34Z" transform="translate(-47.06 -35.07)"/><ellipse class="cls-4" cx="163.71" cy="14.71" rx="2.05" ry="0.62"/><path class="cls-3" d="M221.25,63.56c18.53-5.18,18,5.24,18,5.24" transform="translate(-47.06 -35.07)"/><path class="cls-3" d="M219.82,190.44c16,20.39-7.3,24.85,6.31,37.05" transform="translate(-47.06 -35.07)"/><path class="cls-5" d="M230.39,215.78a6.15,6.15,0,0,1-1-2.65,2.59,2.59,0,0,0-1.83-2.41,2.52,2.52,0,0,0-2.83,1.15,15.27,15.27,0,0,0-1.17,11.62c.6,2,3.52,2.55,4.57.6,2.06-3.84,4.05-7.79,4.4-12.19.16-2.11,0-4.81-2.46-5.48s-4,1.39-4.78,3.31l4.82,1.33a48.29,48.29,0,0,0,0-14.65l-4.82,1.33a6.82,6.82,0,0,0,4.63,4.8c2.51.87,5.31.35,7.89.14,5.58-.46,11.17-.72,16.76-.81l-2.5-2.5c.09-.72.15-.37-.3,0l-.57.35a18.22,18.22,0,0,0-2.22,1.58,16.66,16.66,0,0,0-3.15,4,51,51,0,0,1-5,7.61c-3.8,4.38-9,9.22-14.68,10.64l3.17,2.41c-.11-5.65,1.94-11.37,3.63-16.69.42-1.33.85-2.66,1.27-4,.12-.37.64-1.39.55-1.76l0-.15c-.48.34-.48.43,0,.26a6.82,6.82,0,0,0,1.1-.1,27.37,27.37,0,0,1,5.43.1,22.9,22.9,0,0,1,2.6.49c.34.07.68.22,1,.27.76.12,0,.25,0-.11v-1.33q.39-.34.09-.06l-.49.48-.9.87-2,1.9-4,3.82-7.91,7.62,4.18,2.43,1.39-6.74.69-3.37c.12-.58.22-1.17.39-1.74,0-.15-.31,0,0,0s.62-.12.87-.13c.41,0,.82,0,1.23,0a10.26,10.26,0,0,0,2.53-.21,5.1,5.1,0,0,0,4-3.51,2.55,2.55,0,0,0-1.74-3.08c-2.28-.69-4,.74-5.45,2.34l-4.46,5c-2.12,2.4,1.4,5.95,3.54,3.54l3.13-3.54c.5-.56,1-1.12,1.49-1.67a7.21,7.21,0,0,1,.59-.65c.65-.61.29-.07-.17-.21L240.3,203c.08-.29.43-.1-.07-.06a4.08,4.08,0,0,1-.55.11,18.09,18.09,0,0,1-1.93,0c-2.05,0-4.16.52-5.37,2.33s-1.29,4.32-1.71,6.32l-1.44,7a2.52,2.52,0,0,0,4.18,2.43l11.88-11.44,2.88-2.78a4.66,4.66,0,0,0,1.77-3.28c0-2.75-2.77-3.94-5-4.43a31.32,31.32,0,0,0-8-.72c-2.48.1-5.3.21-6.52,2.74a43.44,43.44,0,0,0-1.81,5.52c-.63,2-1.26,4-1.84,6-1.23,4.27-2.44,8.78-2.35,13.26a2.53,2.53,0,0,0,3.16,2.41,25.69,25.69,0,0,0,9-4.66,49.9,49.9,0,0,0,8.11-7.53,37.81,37.81,0,0,0,3-3.92c1-1.54,1.78-3.2,2.75-4.76A10.17,10.17,0,0,1,253.8,204c1.84-1.16,3.06-2.42,3.35-4.65a2.52,2.52,0,0,0-2.5-2.5q-7.17.12-14.33.62c-2.25.17-4.52.49-6.77.53-1.28,0-3-.12-3.36-1.61a2.5,2.5,0,1,0-4.82,1.33,40.49,40.49,0,0,1,0,12,2.5,2.5,0,0,0,4.82,1.33s-.21.1.2-.07l-1.26.34-.58-.16-.89-.89c-.05-.5-.05-.47,0,.09,0,.29,0,.58,0,.87a12.49,12.49,0,0,1-.15,1.5,17.78,17.78,0,0,1-.82,3,42.48,42.48,0,0,1-2.79,5.86l4.57.6a10.1,10.1,0,0,1,.67-7.77l-4.66-1.26a11.74,11.74,0,0,0,1.65,5.17c1.67,2.74,6,.24,4.31-2.52Z" transform="translate(-47.06 -35.07)"/><path class="cls-5" d="M229.43,223.93c3.21,0,3.22-5,0-5s-3.23,5,0,5Z" transform="translate(-47.06 -35.07)"/><path class="cls-5" d="M244.74,206.65c3.22,0,3.23-5,0-5s-3.22,5,0,5Z" transform="translate(-47.06 -35.07)"/><path class="cls-5" d="M226.7,199.59c3.22,0,3.22-5,0-5s-3.22,5,0,5Z" transform="translate(-47.06 -35.07)"/><path class="cls-5" d="M227,214.56c3.22,0,3.23-5,0-5s-3.22,5,0,5Z" transform="translate(-47.06 -35.07)"/><path class="cls-5" d="M221.72,218.19a9,9,0,0,0,.14,1.37,4.81,4.81,0,0,0,.17.73,6.68,6.68,0,0,0,.89,1.89,1.8,1.8,0,0,0,.64.7,1.85,1.85,0,0,0,.85.45,1.89,1.89,0,0,0,1,0,2,2,0,0,0,.93-.3,2.56,2.56,0,0,0,1.15-1.49l.09-.67a2.53,2.53,0,0,0-.34-1.26,4.84,4.84,0,0,1-.48-.86l.25.6a5.12,5.12,0,0,1-.33-1.22l.09.67a4.89,4.89,0,0,1-.05-.66,1.78,1.78,0,0,0-.21-1,1.85,1.85,0,0,0-.52-.81,1.83,1.83,0,0,0-.8-.51,1.9,1.9,0,0,0-1-.22l-.66.09a2.5,2.5,0,0,0-1.1.64,2.6,2.6,0,0,0-.74,1.77Z" transform="translate(-47.06 -35.07)"/></g></svg>